<?xml version="1.0" standalone="no"?>
<!DOCTYPE svg PUBLIC "-//W3C//DTD SVG 20010904//EN"
 "http://www.w3.org/TR/2001/REC-SVG-20010904/DTD/svg10.dtd">
<svg version="1.0" xmlns="http://www.w3.org/2000/svg"
 width="100.000000pt" height="100.000000pt" viewBox="0 0 100.000000 100.000000"
 preserveAspectRatio="xMidYMid meet">

<g transform="translate(0.000000,100.000000) scale(0.100000,-0.100000)"
fill="#000000" stroke="none">
<path d="M269 847 c-104 -30 -190 -104 -237 -206 -22 -46 -27 -71 -27 -141 0
-76 3 -92 32 -151 39 -79 102 -140 181 -177 48 -22 71 -27 142 -27 71 0 94 5
142 27 79 37 142 98 181 177 28 58 32 75 32 151 0 76 -4 93 -32 151 -60 121
-170 196 -300 205 -40 2 -87 -2 -114 -9z m111 -151 c0 -17 7 -26 25 -30 22 -6
65 -57 65 -78 0 -19 -34 -5 -61 23 -24 26 -34 30 -56 24 -40 -10 -53 -24 -53
-56 0 -31 27 -51 88 -64 18 -4 46 -18 62 -32 57 -47 31 -140 -44 -159 -17 -4
-26 -13 -26 -25 0 -12 -7 -19 -20 -19 -13 0 -20 7 -20 20 0 11 -7 20 -15 20
-23 0 -74 52 -81 83 -9 39 25 36 51 -6 16 -25 28 -33 57 -35 54 -5 78 12 78
53 0 39 -12 48 -91 71 -28 8 -59 24 -70 35 -39 39 -12 127 47 149 14 6 24 18
24 30 0 13 7 20 20 20 14 0 20 -7 20 -24z"/>
<path d="M602 817 c209 -159 209 -475 0 -634 -57 -43 -28 -44 55 -3 73 37 135
101 171 178 38 82 38 202 0 284 -36 77 -98 141 -171 178 -83 41 -112 40 -55
-3z"/>
<path d="M742 817 c209 -159 209 -475 0 -634 -57 -43 -28 -44 56 -2 142 71
223 233 192 385 -24 115 -90 203 -193 254 -83 41 -112 40 -55 -3z"/>
</g>
</svg>
