<?xml version="1.0" standalone="no"?>
<!DOCTYPE svg PUBLIC "-//W3C//DTD SVG 20010904//EN"
 "http://www.w3.org/TR/2001/REC-SVG-20010904/DTD/svg10.dtd">
<svg version="1.0" xmlns="http://www.w3.org/2000/svg"
 width="100.000000pt" height="100.000000pt" viewBox="0 0 100.000000 100.000000"
 preserveAspectRatio="xMidYMid meet">

<g transform="translate(0.000000,100.000000) scale(0.100000,-0.100000)"
fill="#000000" stroke="none">
<path d="M411 949 c-232 -45 -401 -286 -363 -516 41 -249 279 -425 519 -385
248 41 425 279 385 518 -43 259 -288 433 -541 383z m99 -139 c30 -16 33 -58 9
-122 -29 -79 -21 -88 81 -88 97 0 110 -5 110 -40 0 -15 7 -33 15 -40 16 -14
20 -56 6 -64 -5 -4 -5 -18 2 -36 9 -24 8 -32 -5 -47 -9 -10 -18 -34 -20 -53
-3 -30 -8 -37 -38 -47 -59 -20 -229 -16 -336 9 l-94 21 0 104 c0 119 -9 103
126 237 48 48 75 84 83 111 7 22 14 46 16 53 5 15 20 15 45 2z"/>
</g>
</svg>
