<?xml version="1.0" standalone="no"?>
<!DOCTYPE svg PUBLIC "-//W3C//DTD SVG 20010904//EN"
 "http://www.w3.org/TR/2001/REC-SVG-20010904/DTD/svg10.dtd">
<svg version="1.0" xmlns="http://www.w3.org/2000/svg"
 width="100.000000pt" height="100.000000pt" viewBox="0 0 100.000000 100.000000"
 preserveAspectRatio="xMidYMid meet">

<g transform="translate(0.000000,100.000000) scale(0.100000,-0.100000)"
fill="#000000" stroke="none">
<path d="M425 931 c-100 -26 -190 -104 -224 -194 -11 -32 -21 -66 -21 -76 0
-10 -11 -26 -24 -35 -36 -23 -39 -47 -21 -152 24 -130 49 -150 158 -118 10 3
17 15 17 30 0 23 3 24 64 24 71 0 96 14 96 54 0 27 21 48 36 38 6 -4 14 -20
18 -37 12 -49 23 -55 102 -55 l73 0 -9 -29 c-11 -39 -62 -112 -100 -144 -34
-29 -86 -43 -127 -32 -16 3 -54 34 -86 67 -43 45 -61 58 -69 50 -15 -15 3 -50
51 -98 61 -62 141 -81 214 -50 38 16 111 92 134 141 15 32 19 34 60 33 63 -3
78 17 98 130 18 104 15 125 -21 148 -13 9 -24 25 -24 35 0 10 -10 44 -21 76
-26 68 -92 139 -163 172 -53 24 -160 36 -211 22z m192 -61 c58 -25 118 -91
143 -156 23 -62 23 -64 12 -64 -5 0 -18 24 -30 53 -44 106 -128 161 -242 160
-106 0 -186 -47 -231 -135 -24 -47 -24 -58 1 -58 12 0 24 9 29 23 54 141 270
172 368 53 30 -37 53 -95 53 -135 0 -21 -1 -21 -222 -19 -223 3 -223 3 -226
26 -2 12 -8 23 -13 23 -5 1 -15 2 -21 3 -32 3 12 116 66 169 83 84 201 105
313 57z m-387 -272 c0 -2 7 -41 15 -88 21 -121 21 -122 -17 -118 -33 3 -33 3
-49 87 -18 91 -17 107 9 114 21 6 42 8 42 5z m601 -20 c5 -8 -14 -141 -26
-175 -6 -17 -65 -17 -65 0 0 7 5 40 10 73 6 32 13 74 16 92 5 31 8 33 32 27
15 -4 30 -11 33 -17z"/>
<path d="M305 121 c-57 -23 -91 -44 -93 -54 -5 -24 27 -22 100 8 34 14 66 25
71 25 5 0 22 -11 39 -25 43 -36 114 -35 158 2 l32 27 47 -18 c93 -36 111 -40
123 -28 17 17 6 24 -101 68 -90 36 -95 37 -105 19 -25 -42 -47 -56 -84 -53
-29 2 -41 10 -57 35 -11 18 -24 32 -30 32 -5 0 -50 -17 -100 -38z"/>
</g>
</svg>
