<svg width="256" height="256" xmlns="http://www.w3.org/2000/svg">

 <g>
  <title>background</title>
  <rect fill="none" id="canvas_background" height="402" width="582" y="-1" x="-1"/>
 </g>
 <g>
  <title>Layer 1</title>
  <path fill="#1e4776" id="svg_1" d="m128,24a104,104 0 1 0 104,104a104.11791,104.11791 0 0 0 -104,-104zm21.458,153.45605a35.99982,35.99982 0 0 1 -50.91113,0a8.00052,8.00052 0 0 1 11.31445,-11.31445a19.99959,19.99959 0 1 0 14.14161,-34.1416a8,8 0 0 1 -6.55469,-12.58691l19.1875,-27.4209l-32.63867,0a8,8 0 0 1 0,-16l48,0a8,8 0 0 1 6.55469,12.58691l-21.01856,30.03906a36.019,36.019 0 0 1 11.9248,58.83789z"/>
 </g>
</svg>