<svg width="256" height="256" xmlns="http://www.w3.org/2000/svg">

 <g>
  <title>background</title>
  <rect fill="none" id="canvas_background" height="402" width="582" y="-1" x="-1"/>
 </g>
 <g>
  <title>Layer 1</title>
  <path fill="#1e4776" id="svg_1" d="m128,24a104,104 0 1 0 104,104a104.11791,104.11791 0 0 0 -104,-104zm24,143.99414a8,8 0 0 1 0,16l-47.68262,0c-0.10644,0.00391 -0.21289,0.00684 -0.31836,0.00684a8.00343,8.00343 0 0 1 -6.30175,-12.93164l43.67285,-58.27534a16.00416,16.00416 0 1 0 -28.11621,-15.01954a8,8 0 1 1 -14.73633,-6.23246a32.00411,32.00411 0 1 1 56.01269,30.35547c-0.07324,0.1084 -0.14843,0.21484 -0.22754,0.31934l-34.30566,45.77734l32.00293,-0.00001z"/>
 </g>
</svg>